# xmcd
#
# Track frame offsets:
#	150
#	20029
#	34561
#	50492
#	61755
#	79637
#	94074
#	110081
#	134765
#	152043
#	172891
#	191244
#
# Disc length: 2911 seconds
#
# Revision: 0
# Processed by: cddbd v1.5.2PL0 Copyright (c) Steve Scherf et al.
# Submitted via: EasyCDDAExtractor 12.0.1.1
#
DISCID=9e0b5d0c
DTITLE=Daryl Hall and John Oates - Hits
DYEAR=2000
DGENRE=Pop
TTITLE0=Say´T Isnt So
TTITLE1=Sara Mile
TTITLE2=She's Gone
TTITLE3=Rich Girl
TTITLE4=Kiss On My List
TTITLE5=You Make Me Dream
TTITLE6=Private Eyes
TTITLE7=Adult Education
TTITLE8=I Can Go For That
TTITLE9=Maneather
TTITLE10=One On One
TTITLE11=Wait For Me
EXTD=
EXTT0=
EXTT1=
EXTT2=
EXTT3=
EXTT4=
EXTT5=
EXTT6=
EXTT7=
EXTT8=
EXTT9=
EXTT10=
EXTT11=
PLAYORDER=
